# This file uses centimeters as units for non-parametric coordinates.

mtllib Needles.mtl
g default
v 0.343102 -0.728907 -2.975721
v -0.090364 -0.017683 -3.368315
v -0.694252 0.381791 -2.622393
v 0.554241 -0.696656 -1.329732
v 0.361826 0.239332 -1.525481
v -0.701938 0.671479 -1.257148
v 0.000177 0.005342 -0.001830
vt 0.009295 0.204790
vt 0.226002 0.114479
vt 0.226002 0.567733
vt 0.009295 0.612888
vt 0.397540 0.275748
vt 0.478175 0.638691
vt 0.190523 0.998409
vn 0.937329 0.284085 -0.201768
vn 0.742429 0.631065 -0.224845
vn 0.735561 0.671444 -0.090073
vn 0.958036 0.279104 -0.065332
vn 0.742429 0.631065 -0.224845
vn 0.335176 0.919978 -0.203219
vn 0.371133 0.926923 -0.055448
vn 0.735561 0.671444 -0.090073
vn 0.958036 0.279104 -0.065332
vn 0.735561 0.671444 -0.090073
vn 0.686488 0.676417 0.266821
vn 0.735561 0.671444 -0.090073
vn 0.371133 0.926923 -0.055448
vn 0.686488 0.676417 0.266821
s off
g Needles:pPlane1
usemtl initialShadingGroup
f 1/1/1 2/2/2 5/3/3 4/4/4
f 2/2/5 3/5/6 6/6/7 5/3/8
f 4/4/9 5/3/10 7/7/11
f 5/3/12 6/6/13 7/7/14
g default
v -1.070111 -0.389333 -0.460832
v -0.002299 0.000000 0.001728
v 1.143724 -0.389333 -0.582733
v -1.148323 -0.113911 -1.877691
v -0.002299 0.411474 -1.877691
v 1.143724 -0.113911 -1.877691
v -0.002299 -0.332632 -3.550637
vt 0.452782 0.124191
vt 0.715532 0.006998
vt 0.715532 0.474197
vt 0.439868 0.437714
vt 0.984757 0.156445
vt 0.984757 0.474197
vt 0.715532 0.885485
vn -0.409109 0.891309 0.195443
vn -0.409109 0.891309 0.195443
vn -0.409109 0.891309 0.195443
vn -0.409109 0.891309 0.195443
vn -0.013850 0.976986 0.212855
vn 0.405788 0.893293 0.193297
vn 0.414024 0.909275 0.042460
vn -0.001275 0.999996 -0.002667
vn -0.416708 0.908156 0.040093
vn -0.001275 0.999996 -0.002667
vn 0.000000 0.913695 -0.406401
vn -0.001275 0.999996 -0.002667
vn 0.414024 0.909275 0.042460
vn 0.000000 0.913695 -0.406401
s off
g Needles:pPlane2
usemtl initialShadingGroup
f 8/8/15 9/9/16 12/10/17 11/11/18
f 9/9/19 10/12/20 13/13/21 12/10/22
f 11/11/23 12/10/24 14/14/25
f 12/10/26 13/13/27 14/14/28
